<svg width="22" height="22" viewBox="0 0 22 22" fill="none" xmlns="http://www.w3.org/2000/svg"><path d="M11.825 11.9v2.875c.444-.075.87-.236 1.252-.475.53-.347.673-.713.673-.963s-.143-.616-.673-.962a3.442 3.442 0 0 0-1.252-.475ZM9.163 9.482c.058.06.126.12.202.18.23.176.506.313.81.4V7.263c-.132.038-.26.086-.385.143a2.212 2.212 0 0 0-.425.256c-.414.322-.565.69-.565 1 0 .203.064.43.222.652a1.6 1.6 0 0 0 .141.167Z" fill="#8C95A8"/><path fill-rule="evenodd" clip-rule="evenodd" d="M19.8 11a8.8 8.8 0 1 1-17.6 0 8.8 8.8 0 0 1 17.6 0ZM11 4.4a.825.825 0 0 1 .825.825v.348c.66.111 1.284.38 1.818.784.469.363.819.814 1.018 1.32a.825.825 0 0 1-1.535.605 1.485 1.485 0 0 0-.491-.62 2.405 2.405 0 0 0-.81-.399v2.967c.768.102 1.521.352 2.155.766.866.565 1.419 1.397 1.419 2.343s-.554 1.777-1.42 2.343c-.633.414-1.386.663-2.155.765v.33a.825.825 0 0 1-1.65 0v-.33c-.767-.102-1.52-.35-2.154-.765-.53-.347-.943-.789-1.186-1.307a.825.825 0 0 1 1.495-.7c.088.19.27.414.594.626.345.226.777.389 1.252.476v-3.023a4.16 4.16 0 0 1-1.818-.785C7.59 10.377 7.15 9.55 7.15 8.663c0-.886.44-1.714 1.207-2.306a4.158 4.158 0 0 1 1.818-.784v-.348A.825.825 0 0 1 11 4.4Z" fill="#8C95A8"/></svg>