<svg width="22" height="22" viewBox="0 0 22 22" fill="none" xmlns="http://www.w3.org/2000/svg"><path fill-rule="evenodd" clip-rule="evenodd" d="m10.659 20.826.003.001c.217.095.338.073.338.073s.121.022.339-.073h.002l.007-.004.02-.009a12.374 12.374 0 0 0 1.142-.63 15.076 15.076 0 0 0 2.5-1.942c1.822-1.755 3.69-4.5 3.69-8.342a7.701 7.701 0 0 0-15.4 0c0 3.841 1.868 6.587 3.69 8.342a15.107 15.107 0 0 0 2.5 1.942c.349.216.707.416 1.074.598l.069.032.02.009.006.003ZM11 12.375a2.475 2.475 0 1 0 0-4.95 2.475 2.475 0 0 0 0 4.95Z" fill="#8C95A8"/></svg>