<svg width="26" height="26" viewBox="0 0 26 26" fill="none" xmlns="http://www.w3.org/2000/svg"><path fill-rule="evenodd" clip-rule="evenodd" d="M12.814 2.438c-.993 0-1.84.718-2.005 1.697l-.098.595a.864.864 0 0 1-.56.658 8.08 8.08 0 0 0-.518.215.864.864 0 0 1-.862-.07l-.491-.35a2.031 2.031 0 0 0-2.617.216l-.264.264a2.031 2.031 0 0 0-.216 2.617l.35.49a.864.864 0 0 1 .07.863c-.077.17-.149.343-.215.518a.864.864 0 0 1-.658.56l-.596.1a2.031 2.031 0 0 0-1.697 2.003v.372c0 .993.719 1.84 1.698 2.005l.595.098c.304.051.55.27.658.56.066.176.138.348.215.518a.865.865 0 0 1-.07.862l-.35.491a2.031 2.031 0 0 0 .216 2.617l.264.264c.702.702 1.809.794 2.617.216l.49-.35a.866.866 0 0 1 .863-.07c.17.077.342.148.518.215.29.108.509.354.56.658l.1.596a2.03 2.03 0 0 0 2.003 1.697h.372c.993 0 1.84-.719 2.005-1.698l.098-.595a.864.864 0 0 1 .56-.659c.175-.065.348-.137.518-.214a.866.866 0 0 1 .862.07l.491.35a2.03 2.03 0 0 0 2.617-.216l.264-.264c.702-.702.794-1.809.216-2.617l-.35-.49a.865.865 0 0 1-.07-.863c.077-.17.148-.342.215-.518a.865.865 0 0 1 .658-.56l.596-.098a2.03 2.03 0 0 0 1.697-2.005v-.372c0-.993-.719-1.84-1.698-2.005l-.595-.098a.864.864 0 0 1-.659-.56 8.141 8.141 0 0 0-.214-.518.865.865 0 0 1 .07-.862l.35-.491a2.031 2.031 0 0 0-.216-2.617l-.264-.264a2.031 2.031 0 0 0-2.617-.216l-.49.35a.864.864 0 0 1-.863.07 8.098 8.098 0 0 0-.518-.215.864.864 0 0 1-.56-.658l-.098-.596a2.03 2.03 0 0 0-2.005-1.697h-.372ZM13 17.062a4.062 4.062 0 1 0 0-8.124 4.062 4.062 0 0 0 0 8.124Z" fill="#4F40DA"/></svg>