<svg width="26" height="26" viewBox="0 0 26 26" fill="#4F40DA" xmlns="http://www.w3.org/2000/svg"><path fill-rule="evenodd" clip-rule="evenodd" d="M8.125 4.063A1.625 1.625 0 0 0 6.5 5.688v14.625a1.625 1.625 0 0 0 1.625 1.625h6.5a1.625 1.625 0 0 0 1.625-1.625V16.25a.812.812 0 1 1 1.625 0v4.063a3.25 3.25 0 0 1-3.25 3.25h-6.5a3.25 3.25 0 0 1-3.25-3.25V5.688a3.25 3.25 0 0 1 3.25-3.25h6.5a3.25 3.25 0 0 1 3.25 3.25V9.75a.812.812 0 1 1-1.625 0V5.687a1.625 1.625 0 0 0-1.625-1.625h-6.5Zm11.613 5.113a.813.813 0 0 1 1.149 0l3.25 3.25a.813.813 0 0 1 0 1.148l-3.25 3.25a.813.813 0 1 1-1.149-1.148l1.864-1.864H9.75a.812.812 0 1 1 0-1.624h11.852l-1.864-1.864a.813.813 0 0 1 0-1.148Z"/></svg>