<svg width="26" height="26" viewBox="0 0 26 26" fill="none" xmlns="http://www.w3.org/2000/svg"><path fill-rule="evenodd" clip-rule="evenodd" d="M3.9 5.525A2.925 2.925 0 0 1 6.825 2.6h7.15A2.925 2.925 0 0 1 16.9 5.525v2.6a.975.975 0 1 1-1.95 0v-2.6a.975.975 0 0 0-.975-.975h-7.15a.975.975 0 0 0-.975.975v14.95c0 .538.437.975.975.975h7.15a.975.975 0 0 0 .975-.975v-2.6a.975.975 0 1 1 1.95 0v2.6a2.925 2.925 0 0 1-2.925 2.925h-7.15A2.925 2.925 0 0 1 3.9 20.475V5.525Z" fill="#4F40DA"/><path fill-rule="evenodd" clip-rule="evenodd" d="M24.7 13a.975.975 0 0 0-.975-.975h-12.41l1.363-1.226a.973.973 0 0 0-.598-1.712.975.975 0 0 0-.708.264l-3.25 2.925a.974.974 0 0 0 0 1.448l3.25 2.925a.975.975 0 1 0 1.306-1.448l-1.363-1.226h12.41A.975.975 0 0 0 24.7 13Z" fill="#4F40DA"/></svg>